<?xml version="1.0" encoding="iso-8859-1"?>
<!-- Uploaded to: SVG Repo, www.svgrepo.com, Generator: SVG Repo Mixer Tools -->
<!DOCTYPE svg PUBLIC "-//W3C//DTD SVG 1.1//EN" "http://www.w3.org/Graphics/SVG/1.1/DTD/svg11.dtd">
<svg fill="#000000" version="1.1" id="Capa_1" xmlns="http://www.w3.org/2000/svg" xmlns:xlink="http://www.w3.org/1999/xlink" 
	 width="800px" height="800px" viewBox="0 0 34.807 34.807"
	 xml:space="preserve">
<g>
	<g>
		<path d="M0,2.323v30.161c0,0.553,0.447,1,1,1h32.807c0.553,0,1-0.447,1-1V2.323c0-0.553-0.447-1-1-1H1C0.447,1.323,0,1.77,0,2.323
			z M29.568,31.484V17.403c0-0.553-0.446-1-1-1c-0.553,0-1,0.447-1,1v14.081h-3.842V21.278c0-0.553-0.447-1-1-1s-1,0.447-1,1v10.206
			h-5.899v-6.656c0-0.553-0.447-1-1-1c-0.553,0-1,0.447-1,1v6.656H8.098v-4.079c0-0.553-0.447-1-1-1c-0.553,0-1,0.447-1,1v4.079H2
			V10.639h30.807v20.845H29.568z M32.807,3.323v5.316H2V3.323H32.807z"/>
		<path d="M23.643,14.194v-0.012c0-0.011-0.007-0.02-0.007-0.03c-0.003-0.088-0.012-0.176-0.038-0.263
			c-0.006-0.02-0.019-0.034-0.025-0.053c-0.014-0.039-0.034-0.073-0.053-0.11c-0.037-0.07-0.08-0.134-0.131-0.193
			c-0.027-0.031-0.054-0.061-0.084-0.088c-0.064-0.058-0.136-0.104-0.213-0.143c-0.027-0.015-0.051-0.034-0.08-0.046
			c-0.102-0.04-0.21-0.067-0.322-0.073l-2.576-0.122c-0.016-0.001-0.029,0.007-0.045,0.007c-0.065,0-0.129,0.016-0.192,0.028
			c-0.06,0.012-0.117,0.019-0.174,0.042c-0.074,0.029-0.138,0.076-0.204,0.124c-0.037,0.026-0.075,0.048-0.109,0.079
			c-0.019,0.018-0.043,0.025-0.061,0.045c-0.043,0.047-0.062,0.104-0.094,0.156c-0.027,0.042-0.056,0.079-0.076,0.125
			c-0.031,0.074-0.047,0.15-0.061,0.229c-0.008,0.04-0.029,0.074-0.031,0.116c0,0.019,0.006,0.035,0.006,0.053
			c0,0.04,0.009,0.078,0.014,0.117c0.012,0.082,0.027,0.159,0.057,0.234c0.016,0.036,0.029,0.07,0.049,0.105
			c0.045,0.084,0.101,0.16,0.166,0.229c0.016,0.014,0.021,0.033,0.035,0.047l0.241,0.22c-6.199,3.833-12.755,5.266-12.829,5.281
			c-0.54,0.115-0.885,0.646-0.77,1.188c0.1,0.47,0.515,0.792,0.977,0.792c0.068,0,0.139-0.007,0.209-0.021
			c0.325-0.069,7.325-1.604,13.941-5.845l0.807,0.736c0.047,0.042,0.102,0.063,0.152,0.095c0.051,0.031,0.094,0.069,0.148,0.092
			c0.121,0.049,0.246,0.075,0.373,0.075c0.139,0,0.271-0.028,0.394-0.081c0.017-0.008,0.03-0.023,0.047-0.031
			c0.104-0.053,0.2-0.118,0.28-0.202c0.006-0.005,0.013-0.007,0.018-0.012c0.032-0.035,0.044-0.078,0.07-0.116
			c0.044-0.064,0.091-0.125,0.119-0.199c0.027-0.069,0.031-0.142,0.043-0.215c0.008-0.049,0.029-0.093,0.029-0.144V14.194
			C23.643,14.195,23.643,14.195,23.643,14.194z"/>
	</g>
</g>
</svg>