<?xml version="1.0" encoding="utf-8"?>

<!DOCTYPE svg PUBLIC "-//W3C//DTD SVG 1.0//EN" "http://www.w3.org/TR/2001/REC-SVG-20010904/DTD/svg10.dtd">
<!-- Uploaded to: SVG Repo, www.svgrepo.com, Generator: SVG Repo Mixer Tools -->
<svg fill="#000000" version="1.0" id="Layer_1" xmlns="http://www.w3.org/2000/svg" xmlns:xlink="http://www.w3.org/1999/xlink" 
	 width="800px" height="800px" viewBox="0 0 64 64" enable-background="new 0 0 64 64" xml:space="preserve">
<path d="M52,0H12C5.375,0,0,5.371,0,12v40c0,2.211,1.789,4,4,4h4v4c0,2.211,1.789,4,4,4h4c2.211,0,4-1.789,4-4v-4h24v4
	c0,2.211,1.789,4,4,4h4c2.211,0,4-1.789,4-4v-4h4c2.211,0,4-1.789,4-4V12C64,5.375,58.629,0,52,0z M16,44c-2.211,0-4-1.789-4-4
	s1.789-4,4-4s4,1.789,4,4S18.211,44,16,44z M48,44c-2.211,0-4-1.789-4-4s1.789-4,4-4s4,1.789,4,4S50.211,44,48,44z M56,24H8V12
	c0-2.211,1.789-4,4-4h40c2.211,0,4,1.789,4,4V24z"/>
</svg>