<?xml version="1.0" encoding="utf-8"?>

<!DOCTYPE svg PUBLIC "-//W3C//DTD SVG 1.1//EN" "http://www.w3.org/Graphics/SVG/1.1/DTD/svg11.dtd">
<!-- Uploaded to: SVG Repo, www.svgrepo.com, Generator: SVG Repo Mixer Tools -->
<svg fill="#000000" version="1.1" id="Layer_1" xmlns="http://www.w3.org/2000/svg" xmlns:xlink="http://www.w3.org/1999/xlink" 
	 width="800px" height="800px" viewBox="0 0 72 72" enable-background="new 0 0 72 72" xml:space="preserve">
<g>
	<path d="M66.318,7.585c-0.045-0.905-0.705-1.675-1.601-1.856c-0.077-0.015-0.153-0.026-0.229-0.033L38.635,3.139
		c-0.601-0.06-1.187,0.152-1.611,0.576L6.55,34.191c-4.571,4.571-4.571,7.359,0,11.929l19.338,19.34
		c2.049,2.05,3.847,3.412,5.965,3.412s3.916-1.366,5.961-3.413l30.479-30.478c0.424-0.423,0.635-1.014,0.576-1.611L66.318,7.585z
		 M34.987,62.631c-0.961,0.961-2.332,2.24-3.134,2.24c-0.803,0-2.175-1.279-3.137-2.24L9.378,43.291
		c-2.989-2.988-2.989-3.283,0-6.271L39.186,7.212l23.303,2.306l2.308,23.304L34.987,62.631z"/>
	<path d="M24.043,27.496l-9.09,9.089c-2.295,2.295-2.925,3.851-0.297,6.479c0.195,0.195,0.451,0.293,0.707,0.293
		c0.256,0,0.512-0.098,0.707-0.293c0.391-0.391,0.391-1.022,0-1.414c-1.567-1.567-1.548-1.805,0.297-3.651l9.09-9.089
		c0.391-0.391,0.391-1.023,0-1.414S24.434,27.105,24.043,27.496z"/>
	<path d="M26.888,24.649l-0.813,0.814c-0.39,0.391-0.39,1.024,0.002,1.414c0.195,0.194,0.45,0.292,0.706,0.292
		c0.256,0,0.512-0.097,0.708-0.294l0.813-0.814c0.39-0.391,0.39-1.024-0.002-1.414C27.911,24.258,27.279,24.256,26.888,24.649z"/>
	<path d="M50.604,12.862c-4.571,0-8.293,3.72-8.293,8.292c0,4.572,3.722,8.292,8.293,8.292c4.573,0,8.291-3.72,8.291-8.292
		C58.895,16.582,55.176,12.862,50.604,12.862z M50.604,25.446c-2.367,0-4.293-1.926-4.293-4.292c0-2.366,1.926-4.292,4.293-4.292
		c2.369,0,4.291,1.926,4.291,4.292C54.895,23.52,52.971,25.446,50.604,25.446z"/>
</g>
</svg>