<?xml version="1.0" encoding="utf-8"?>
<!-- Uploaded to: SVG Repo, www.svgrepo.com, Generator: SVG Repo Mixer Tools -->
<svg fill="#000000" width="800px" height="800px" viewBox="-6 0 32 32" version="1.1" xmlns="http://www.w3.org/2000/svg">
<title>airplane</title>
<path d="M6.72 26.2c-0.040 0-0.080 0-0.12 0-0.28-0.040-0.48-0.2-0.64-0.44l-1.96-3.56-3.56-1.96c-0.24-0.12-0.4-0.36-0.44-0.64s0.040-0.52 0.24-0.72l1.8-1.8c0.2-0.2 0.48-0.28 0.76-0.24l2.040 0.36 2.68-2.68-6.48-3.2c-0.24-0.12-0.4-0.36-0.48-0.64s0.040-0.56 0.24-0.76l2-2c0.2-0.2 0.52-0.28 0.8-0.24l8.48 2.2 2.96-2.96c1.040-1.040 3.48-1.8 4.72-0.56 0.56 0.56 0.76 1.48 0.56 2.52-0.16 0.84-0.6 1.64-1.12 2.16l-2.96 2.96 2.2 8.48c0.080 0.28 0 0.6-0.24 0.8l-2 2c-0.2 0.2-0.48 0.28-0.76 0.24s-0.52-0.2-0.64-0.48l-3.2-6.48-2.68 2.68 0.36 2.040c0.040 0.28-0.040 0.56-0.24 0.76l-1.8 1.8c-0.080 0.28-0.28 0.36-0.52 0.36zM2.24 19.28l2.8 1.52c0.16 0.080 0.24 0.2 0.32 0.32l1.52 2.8 0.68-0.68-0.32-2.040c-0.040-0.28 0.040-0.56 0.24-0.76l3.84-3.84c0.2-0.2 0.48-0.28 0.76-0.24s0.52 0.2 0.64 0.48l3.2 6.48 0.8-0.8-2.2-8.48c-0.080-0.28 0-0.6 0.24-0.8l3.28-3.28c0.6-0.6 0.92-1.96 0.56-2.32s-1.72 0-2.32 0.56l-3.28 3.28c-0.2 0.2-0.52 0.28-0.8 0.24l-8.52-2.2-0.8 0.8 6.48 3.2c0.24 0.12 0.4 0.36 0.48 0.64s-0.040 0.56-0.24 0.76l-3.84 3.84c-0.2 0.2-0.48 0.28-0.76 0.24l-2.040-0.36-0.72 0.64z"></path>
</svg>